<?xml version="1.0" standalone="no"?>
<!DOCTYPE svg PUBLIC "-//W3C//DTD SVG 20010904//EN"
 "http://www.w3.org/TR/2001/REC-SVG-20010904/DTD/svg10.dtd">
<svg version="1.0" xmlns="http://www.w3.org/2000/svg"
 width="512.000000pt" height="512.000000pt" viewBox="0 0 512.000000 512.000000"
 preserveAspectRatio="xMidYMid meet">
<metadata>
Created by potrace 1.14, written by Peter Selinger 2001-2017
</metadata>
<g transform="translate(0.000000,512.000000) scale(0.100000,-0.100000)"
fill="#000000" stroke="none">
<path d="M2379 5116 c-2 -2 -40 -6 -83 -10 -44 -4 -82 -8 -85 -10 -3 -2 -31
-7 -61 -11 -30 -3 -75 -11 -100 -17 -25 -5 -56 -12 -70 -14 -53 -10 -237 -66
-329 -101 -374 -139 -773 -417 -1021 -712 -25 -30 -50 -59 -55 -65 -52 -56
-183 -248 -238 -348 -71 -129 -84 -155 -126 -250 -77 -177 -143 -395 -165
-542 -4 -21 -8 -41 -10 -45 -2 -3 -7 -33 -11 -66 -3 -33 -10 -89 -15 -125 -8
-66 -6 -478 3 -515 3 -11 8 -42 11 -70 14 -106 13 -102 51 -270 11 -51 37
-142 45 -160 5 -11 12 -31 16 -45 25 -92 170 -411 221 -487 11 -15 49 -73 85
-128 37 -55 75 -109 85 -120 10 -12 34 -41 53 -65 104 -135 274 -297 446 -428
299 -227 699 -404 1054 -466 197 -35 256 -40 475 -41 233 0 309 7 529 51 125
25 379 102 474 145 674 302 1152 804 1404 1474 16 44 31 88 33 98 2 9 7 22 10
27 3 5 8 18 10 27 2 10 11 46 20 80 20 78 26 102 30 130 2 11 5 29 9 40 8 27
20 112 33 228 10 90 10 408 1 505 -9 85 -22 172 -37 245 -6 28 -13 61 -15 75
-11 56 -50 190 -78 270 -189 534 -523 966 -990 1284 -54 36 -101 66 -105 66
-3 0 -14 6 -22 14 -20 18 -259 138 -331 166 -48 19 -255 92 -255 90 0 -1 -7 1
-15 4 -27 9 -186 46 -225 52 -21 3 -47 8 -59 10 -11 2 -41 7 -66 10 -25 3 -56
8 -70 10 -30 6 -455 15 -461 10z"/>
</g>
</svg>
